Exact Audio Copy V0.99 prebeta 5 from 4. May 2009

EAC uitlezen log bestand van 13. Juni 2010, 13:48

The Chemical Brothers / Further

gebruikt loopwerk  : PIONEER DVD-RW  DVR-218L   Adapter: 3  ID: 0

Lees mode                  : Veilig
Gebruik accurate stream    : Ja
Audio buffer uitgeschakeld : Neen
Gebruik C2 Foutinformatie  : Ja

Lees-offset correctie                          : 6
Overlees in Lead-In en Lead-Out                : Neen
Vul ontbrekende offset samples met stiltes aan : Ja
Wis stilte blokken aan het begin en einde      : Neen
Nul samples gebruikt in CRC berekeningen       : Ja
Gebruik interface                              : Native Win32 interface voor Win NT/2000/XP

Gebruik uitgave formaat : Interne WAV Routines
Sample formaat          : 44.100 Hz; 16 Bit; Stereo


TOC van de uitgelezen CD

     Track |   Start  |  Lengte  | Startsector | Eindsector 
    --------------------------------------------------------
        1  |  0:00.00 |  5:07.10 |        0    |    23034   
        2  |  5:07.10 | 11:57.01 |    23035    |    76810   
        3  | 17:04.11 |  5:40.59 |    76811    |   102369   
        4  | 22:44.70 |  6:21.62 |   102370    |   131006   
        5  | 29:06.57 |  5:51.07 |   131007    |   157338   
        6  | 34:57.64 |  6:05.06 |   157339    |   184719   
        7  | 41:02.70 |  5:39.72 |   184720    |   210216   
        8  | 46:42.67 |  5:13.12 |   210217    |   233703   


Bereikstatus en fouten

Geselecteerd bereik

     Bestandsnaam C:PostThe Chemical Brothers - Further (EAC)The Chemical Brothers - Further.wav

     Piek niveau 100.0 %
     Bereikskwaliteit 100.0 %
     Kopie CRC C23B7C70
     Kopie OK

Geen fouten opgetreden

Einde van het status rapport

Tracklist : 

# Snow
# Escape Velocity
# Another World
# Dissolve
# Horse Power
# Swoon
# K+D+B
# Wonders Of The Deep
















Hashcode : 95B52E4FC8A3F73ADCED1B049C7656B879327C4C